# xmcd
# Track frame offsets:
# 150
# 15023
# 28139
# 39490
# 51990
# 64852
# 77466
# 90990
# 103777
# 117941
# 129846
# 144858
#
# Disc length: 2085 seconds
# Revision: 0
# Processed by: cddbd v1.5.2PL0 Copyright (c) Steve Scherf et al.
# Submitted via: VisiTrax 2.11.0.264 - For more info visit www.synapsa.com
#
DISCID=8908230c
DTITLE=Joe Paul Nichols - The price is right
DYEAR=2008
DGENRE=Country
TTITLE0=Invitation to the blues
TTITLE1=One more time
TTITLE2=You took my happy away
TTITLE3=Your old love letters
TTITLE4=Twenty.fourth hour
TTITLE5=I've got a new heartache
TTITLE6=Each time
TTITLE7=Pride
TTITLE8=Heartaches by the number
TTITLE9=I'll be there
TTITLE10=Different kind of flower
TTITLE11=Faith
EXTD=
EXTT0=
EXTT1=
EXTT2=
EXTT3=
EXTT4=
EXTT5=
EXTT6=
EXTT7=
EXTT8=
EXTT9=
EXTT10=
EXTT11=
PLAYORDER=
